<?xml version="1.0" encoding="UTF-8" ?>
<svg version="1.1" width="64" height="64" xmlns="http://www.w3.org/2000/svg" shape-rendering="crispEdges">
<rect x="29" y="5" width="1" height="1" fill="#000000" />
<rect x="30" y="5" width="1" height="1" fill="#000000" />
<rect x="31" y="5" width="1" height="1" fill="#000000" />
<rect x="32" y="5" width="1" height="1" fill="#000000" />
<rect x="33" y="5" width="1" height="1" fill="#000000" />
<rect x="34" y="5" width="1" height="1" fill="#000000" />
<rect x="28" y="6" width="1" height="1" fill="#000000" />
<rect x="29" y="6" width="1" height="1" fill="#B0120A" />
<rect x="30" y="6" width="1" height="1" fill="#B0120A" />
<rect x="31" y="6" width="1" height="1" fill="#B0120A" />
<rect x="32" y="6" width="1" height="1" fill="#B0120A" />
<rect x="33" y="6" width="1" height="1" fill="#B0120A" />
<rect x="34" y="6" width="1" height="1" fill="#B0120A" />
<rect x="35" y="6" width="1" height="1" fill="#000000" />
<rect x="27" y="7" width="1" height="1" fill="#000000" />
<rect x="28" y="7" width="1" height="1" fill="#760B06" />
<rect x="29" y="7" width="1" height="1" fill="#A52E28" />
<rect x="30" y="7" width="1" height="1" fill="#FF161E" />
<rect x="31" y="7" width="1" height="1" fill="#FF161E" />
<rect x="32" y="7" width="1" height="1" fill="#ED0009" />
<rect x="33" y="7" width="1" height="1" fill="#ED0009" />
<rect x="34" y="7" width="1" height="1" fill="#A52E28" />
<rect x="35" y="7" width="1" height="1" fill="#760B06" />
<rect x="36" y="7" width="1" height="1" fill="#000000" />
<rect x="27" y="8" width="1" height="1" fill="#000000" />
<rect x="28" y="8" width="1" height="1" fill="#760B06" />
<rect x="29" y="8" width="1" height="1" fill="#FF161E" />
<rect x="30" y="8" width="1" height="1" fill="#A52E28" />
<rect x="31" y="8" width="1" height="1" fill="#A52E28" />
<rect x="32" y="8" width="1" height="1" fill="#A52E28" />
<rect x="33" y="8" width="1" height="1" fill="#A52E28" />
<rect x="34" y="8" width="1" height="1" fill="#ED0009" />
<rect x="35" y="8" width="1" height="1" fill="#760B06" />
<rect x="36" y="8" width="1" height="1" fill="#000000" />
<rect x="27" y="9" width="1" height="1" fill="#000000" />
<rect x="28" y="9" width="1" height="1" fill="#760B06" />
<rect x="29" y="9" width="1" height="1" fill="#FF161E" />
<rect x="30" y="9" width="1" height="1" fill="#A52E28" />
<rect x="31" y="9" width="1" height="1" fill="#A52E28" />
<rect x="32" y="9" width="1" height="1" fill="#A52E28" />
<rect x="33" y="9" width="1" height="1" fill="#A52E28" />
<rect x="34" y="9" width="1" height="1" fill="#ED0009" />
<rect x="35" y="9" width="1" height="1" fill="#760B06" />
<rect x="36" y="9" width="1" height="1" fill="#000000" />
<rect x="27" y="10" width="1" height="1" fill="#000000" />
<rect x="28" y="10" width="1" height="1" fill="#760B06" />
<rect x="29" y="10" width="1" height="1" fill="#A52E28" />
<rect x="30" y="10" width="1" height="1" fill="#FF161E" />
<rect x="31" y="10" width="1" height="1" fill="#FF161E" />
<rect x="32" y="10" width="1" height="1" fill="#ED0009" />
<rect x="33" y="10" width="1" height="1" fill="#ED0009" />
<rect x="34" y="10" width="1" height="1" fill="#A52E28" />
<rect x="35" y="10" width="1" height="1" fill="#760B06" />
<rect x="36" y="10" width="1" height="1" fill="#000000" />
<rect x="28" y="11" width="1" height="1" fill="#000000" />
<rect x="29" y="11" width="1" height="1" fill="#B0120A" />
<rect x="30" y="11" width="1" height="1" fill="#B0120A" />
<rect x="31" y="11" width="1" height="1" fill="#FF161E" />
<rect x="32" y="11" width="1" height="1" fill="#ED0009" />
<rect x="33" y="11" width="1" height="1" fill="#B0120A" />
<rect x="34" y="11" width="1" height="1" fill="#B0120A" />
<rect x="35" y="11" width="1" height="1" fill="#000000" />
<rect x="29" y="12" width="1" height="1" fill="#000000" />
<rect x="30" y="12" width="1" height="1" fill="#000000" />
<rect x="31" y="12" width="1" height="1" fill="#B0120A" />
<rect x="32" y="12" width="1" height="1" fill="#B0120A" />
<rect x="33" y="12" width="1" height="1" fill="#000000" />
<rect x="34" y="12" width="1" height="1" fill="#000000" />
<rect x="30" y="13" width="1" height="1" fill="#1F1B1B" />
<rect x="31" y="13" width="1" height="1" fill="#6E3E19" />
<rect x="32" y="13" width="1" height="1" fill="#6E3E19" />
<rect x="33" y="13" width="1" height="1" fill="#1F1B1B" />
<rect x="30" y="14" width="1" height="1" fill="#1F1B1B" />
<rect x="31" y="14" width="1" height="1" fill="#6E3E19" />
<rect x="32" y="14" width="1" height="1" fill="#5A3416" />
<rect x="33" y="14" width="1" height="1" fill="#1F1B1B" />
<rect x="30" y="15" width="1" height="1" fill="#1F1B1B" />
<rect x="31" y="15" width="1" height="1" fill="#5A3416" />
<rect x="32" y="15" width="1" height="1" fill="#6E3E19" />
<rect x="33" y="15" width="1" height="1" fill="#1F1B1B" />
<rect x="30" y="16" width="1" height="1" fill="#1F1B1B" />
<rect x="31" y="16" width="1" height="1" fill="#6E3E19" />
<rect x="32" y="16" width="1" height="1" fill="#6E3E19" />
<rect x="33" y="16" width="1" height="1" fill="#1F1B1B" />
<rect x="21" y="17" width="1" height="1" fill="#000000" />
<rect x="30" y="17" width="1" height="1" fill="#1F1B1B" />
<rect x="31" y="17" width="1" height="1" fill="#000000" />
<rect x="32" y="17" width="1" height="1" fill="#000000" />
<rect x="33" y="17" width="1" height="1" fill="#1F1B1B" />
<rect x="42" y="17" width="1" height="1" fill="#000000" />
<rect x="20" y="18" width="1" height="1" fill="#000000" />
<rect x="21" y="18" width="1" height="1" fill="#B0120A" />
<rect x="22" y="18" width="1" height="1" fill="#000000" />
<rect x="30" y="18" width="1" height="1" fill="#B0120A" />
<rect x="31" y="18" width="1" height="1" fill="#000000" />
<rect x="32" y="18" width="1" height="1" fill="#000000" />
<rect x="33" y="18" width="1" height="1" fill="#B0120A" />
<rect x="41" y="18" width="1" height="1" fill="#000000" />
<rect x="42" y="18" width="1" height="1" fill="#B0120A" />
<rect x="43" y="18" width="1" height="1" fill="#000000" />
<rect x="19" y="19" width="1" height="1" fill="#000000" />
<rect x="20" y="19" width="1" height="1" fill="#FF0009" />
<rect x="21" y="19" width="1" height="1" fill="#FF0009" />
<rect x="22" y="19" width="1" height="1" fill="#000000" />
<rect x="30" y="19" width="1" height="1" fill="#000000" />
<rect x="31" y="19" width="1" height="1" fill="#000000" />
<rect x="32" y="19" width="1" height="1" fill="#000000" />
<rect x="33" y="19" width="1" height="1" fill="#000000" />
<rect x="41" y="19" width="1" height="1" fill="#000000" />
<rect x="42" y="19" width="1" height="1" fill="#FF0009" />
<rect x="43" y="19" width="1" height="1" fill="#FF0009" />
<rect x="44" y="19" width="1" height="1" fill="#000000" />
<rect x="18" y="20" width="1" height="1" fill="#000000" />
<rect x="19" y="20" width="1" height="1" fill="#B0120A" />
<rect x="20" y="20" width="1" height="1" fill="#FF0009" />
<rect x="21" y="20" width="1" height="1" fill="#000000" />
<rect x="30" y="20" width="1" height="1" fill="#1F1B1B" />
<rect x="31" y="20" width="1" height="1" fill="#6E3E19" />
<rect x="32" y="20" width="1" height="1" fill="#6E3E19" />
<rect x="33" y="20" width="1" height="1" fill="#1F1B1B" />
<rect x="42" y="20" width="1" height="1" fill="#000000" />
<rect x="43" y="20" width="1" height="1" fill="#FF0009" />
<rect x="44" y="20" width="1" height="1" fill="#B0120A" />
<rect x="45" y="20" width="1" height="1" fill="#000000" />
<rect x="18" y="21" width="1" height="1" fill="#000000" />
<rect x="19" y="21" width="1" height="1" fill="#B0120A" />
<rect x="20" y="21" width="1" height="1" fill="#FF0009" />
<rect x="21" y="21" width="1" height="1" fill="#FF0009" />
<rect x="22" y="21" width="1" height="1" fill="#000000" />
<rect x="30" y="21" width="1" height="1" fill="#1F1B1B" />
<rect x="31" y="21" width="1" height="1" fill="#5A3416" />
<rect x="32" y="21" width="1" height="1" fill="#6E3E19" />
<rect x="33" y="21" width="1" height="1" fill="#1F1B1B" />
<rect x="41" y="21" width="1" height="1" fill="#000000" />
<rect x="42" y="21" width="1" height="1" fill="#FF0009" />
<rect x="43" y="21" width="1" height="1" fill="#FF0009" />
<rect x="44" y="21" width="1" height="1" fill="#B0120A" />
<rect x="45" y="21" width="1" height="1" fill="#000000" />
<rect x="19" y="22" width="1" height="1" fill="#000000" />
<rect x="20" y="22" width="1" height="1" fill="#B0120A" />
<rect x="21" y="22" width="1" height="1" fill="#FF0009" />
<rect x="22" y="22" width="1" height="1" fill="#B0120A" />
<rect x="23" y="22" width="1" height="1" fill="#000000" />
<rect x="24" y="22" width="1" height="1" fill="#000000" />
<rect x="30" y="22" width="1" height="1" fill="#1F1B1B" />
<rect x="31" y="22" width="1" height="1" fill="#6E3E19" />
<rect x="32" y="22" width="1" height="1" fill="#5A3416" />
<rect x="33" y="22" width="1" height="1" fill="#1F1B1B" />
<rect x="39" y="22" width="1" height="1" fill="#000000" />
<rect x="40" y="22" width="1" height="1" fill="#000000" />
<rect x="41" y="22" width="1" height="1" fill="#B0120A" />
<rect x="42" y="22" width="1" height="1" fill="#FF0009" />
<rect x="43" y="22" width="1" height="1" fill="#B0120A" />
<rect x="44" y="22" width="1" height="1" fill="#000000" />
<rect x="19" y="23" width="1" height="1" fill="#000000" />
<rect x="20" y="23" width="1" height="1" fill="#B0120A" />
<rect x="21" y="23" width="1" height="1" fill="#FF0009" />
<rect x="22" y="23" width="1" height="1" fill="#FF0009" />
<rect x="23" y="23" width="1" height="1" fill="#B0120A" />
<rect x="24" y="23" width="1" height="1" fill="#000000" />
<rect x="25" y="23" width="1" height="1" fill="#000000" />
<rect x="30" y="23" width="1" height="1" fill="#000000" />
<rect x="31" y="23" width="1" height="1" fill="#000000" />
<rect x="32" y="23" width="1" height="1" fill="#000000" />
<rect x="33" y="23" width="1" height="1" fill="#000000" />
<rect x="38" y="23" width="1" height="1" fill="#000000" />
<rect x="39" y="23" width="1" height="1" fill="#000000" />
<rect x="40" y="23" width="1" height="1" fill="#B0120A" />
<rect x="41" y="23" width="1" height="1" fill="#FF0009" />
<rect x="42" y="23" width="1" height="1" fill="#FF0009" />
<rect x="43" y="23" width="1" height="1" fill="#B0120A" />
<rect x="44" y="23" width="1" height="1" fill="#000000" />
<rect x="20" y="24" width="1" height="1" fill="#000000" />
<rect x="21" y="24" width="1" height="1" fill="#B0120A" />
<rect x="22" y="24" width="1" height="1" fill="#FF0009" />
<rect x="23" y="24" width="1" height="1" fill="#FF0009" />
<rect x="24" y="24" width="1" height="1" fill="#B0120A" />
<rect x="25" y="24" width="1" height="1" fill="#B0120A" />
<rect x="26" y="24" width="1" height="1" fill="#000000" />
<rect x="27" y="24" width="1" height="1" fill="#000000" />
<rect x="29" y="24" width="1" height="1" fill="#000000" />
<rect x="30" y="24" width="1" height="1" fill="#B0120A" />
<rect x="31" y="24" width="1" height="1" fill="#B0120A" />
<rect x="32" y="24" width="1" height="1" fill="#B0120A" />
<rect x="33" y="24" width="1" height="1" fill="#B0120A" />
<rect x="34" y="24" width="1" height="1" fill="#000000" />
<rect x="36" y="24" width="1" height="1" fill="#000000" />
<rect x="37" y="24" width="1" height="1" fill="#000000" />
<rect x="38" y="24" width="1" height="1" fill="#B0120A" />
<rect x="39" y="24" width="1" height="1" fill="#B0120A" />
<rect x="40" y="24" width="1" height="1" fill="#FF0009" />
<rect x="41" y="24" width="1" height="1" fill="#FF0009" />
<rect x="42" y="24" width="1" height="1" fill="#B0120A" />
<rect x="43" y="24" width="1" height="1" fill="#000000" />
<rect x="21" y="25" width="1" height="1" fill="#000000" />
<rect x="22" y="25" width="1" height="1" fill="#B0120A" />
<rect x="23" y="25" width="1" height="1" fill="#FF343B" />
<rect x="24" y="25" width="1" height="1" fill="#D01219" />
<rect x="25" y="25" width="1" height="1" fill="#FF0009" />
<rect x="26" y="25" width="1" height="1" fill="#B0120A" />
<rect x="27" y="25" width="1" height="1" fill="#000000" />
<rect x="28" y="25" width="1" height="1" fill="#000000" />
<rect x="29" y="25" width="1" height="1" fill="#B0120A" />
<rect x="30" y="25" width="1" height="1" fill="#FF161E" />
<rect x="31" y="25" width="1" height="1" fill="#FF161E" />
<rect x="32" y="25" width="1" height="1" fill="#ED0009" />
<rect x="33" y="25" width="1" height="1" fill="#ED0009" />
<rect x="34" y="25" width="1" height="1" fill="#B0120A" />
<rect x="35" y="25" width="1" height="1" fill="#000000" />
<rect x="36" y="25" width="1" height="1" fill="#000000" />
<rect x="37" y="25" width="1" height="1" fill="#B0120A" />
<rect x="38" y="25" width="1" height="1" fill="#FF0009" />
<rect x="39" y="25" width="1" height="1" fill="#D01219" />
<rect x="40" y="25" width="1" height="1" fill="#FF343B" />
<rect x="41" y="25" width="1" height="1" fill="#B0120A" />
<rect x="42" y="25" width="1" height="1" fill="#000000" />
<rect x="21" y="26" width="1" height="1" fill="#000000" />
<rect x="22" y="26" width="1" height="1" fill="#B0120A" />
<rect x="23" y="26" width="1" height="1" fill="#E4030B" />
<rect x="24" y="26" width="1" height="1" fill="#FF343B" />
<rect x="25" y="26" width="1" height="1" fill="#D01219" />
<rect x="26" y="26" width="1" height="1" fill="#FF161E" />
<rect x="27" y="26" width="1" height="1" fill="#B0120A" />
<rect x="28" y="26" width="1" height="1" fill="#B0120A" />
<rect x="29" y="26" width="1" height="1" fill="#FF161E" />
<rect x="30" y="26" width="1" height="1" fill="#FF161E" />
<rect x="31" y="26" width="1" height="1" fill="#FF161E" />
<rect x="32" y="26" width="1" height="1" fill="#ED0009" />
<rect x="33" y="26" width="1" height="1" fill="#ED0009" />
<rect x="34" y="26" width="1" height="1" fill="#ED0009" />
<rect x="35" y="26" width="1" height="1" fill="#B0120A" />
<rect x="36" y="26" width="1" height="1" fill="#B0120A" />
<rect x="37" y="26" width="1" height="1" fill="#ED0009" />
<rect x="38" y="26" width="1" height="1" fill="#D01219" />
<rect x="39" y="26" width="1" height="1" fill="#FF343B" />
<rect x="40" y="26" width="1" height="1" fill="#E4030B" />
<rect x="41" y="26" width="1" height="1" fill="#B0120A" />
<rect x="42" y="26" width="1" height="1" fill="#000000" />
<rect x="21" y="27" width="1" height="1" fill="#000000" />
<rect x="22" y="27" width="1" height="1" fill="#B0120A" />
<rect x="23" y="27" width="1" height="1" fill="#E4030B" />
<rect x="24" y="27" width="1" height="1" fill="#FF343B" />
<rect x="25" y="27" width="1" height="1" fill="#D01219" />
<rect x="26" y="27" width="1" height="1" fill="#FF161E" />
<rect x="27" y="27" width="1" height="1" fill="#FF161E" />
<rect x="28" y="27" width="1" height="1" fill="#FF161E" />
<rect x="29" y="27" width="1" height="1" fill="#FF161E" />
<rect x="30" y="27" width="1" height="1" fill="#FF161E" />
<rect x="31" y="27" width="1" height="1" fill="#FF161E" />
<rect x="32" y="27" width="1" height="1" fill="#ED0009" />
<rect x="33" y="27" width="1" height="1" fill="#ED0009" />
<rect x="34" y="27" width="1" height="1" fill="#ED0009" />
<rect x="35" y="27" width="1" height="1" fill="#ED0009" />
<rect x="36" y="27" width="1" height="1" fill="#ED0009" />
<rect x="37" y="27" width="1" height="1" fill="#ED0009" />
<rect x="38" y="27" width="1" height="1" fill="#D01219" />
<rect x="39" y="27" width="1" height="1" fill="#FF343B" />
<rect x="40" y="27" width="1" height="1" fill="#E4030B" />
<rect x="41" y="27" width="1" height="1" fill="#B0120A" />
<rect x="42" y="27" width="1" height="1" fill="#000000" />
<rect x="21" y="28" width="1" height="1" fill="#000000" />
<rect x="22" y="28" width="1" height="1" fill="#B0120A" />
<rect x="23" y="28" width="1" height="1" fill="#E4030B" />
<rect x="24" y="28" width="1" height="1" fill="#FF343B" />
<rect x="25" y="28" width="1" height="1" fill="#D01219" />
<rect x="26" y="28" width="1" height="1" fill="#FF161E" />
<rect x="27" y="28" width="1" height="1" fill="#FF161E" />
<rect x="28" y="28" width="1" height="1" fill="#FF161E" />
<rect x="29" y="28" width="1" height="1" fill="#FF161E" />
<rect x="30" y="28" width="1" height="1" fill="#FF161E" />
<rect x="31" y="28" width="1" height="1" fill="#FF161E" />
<rect x="32" y="28" width="1" height="1" fill="#ED0009" />
<rect x="33" y="28" width="1" height="1" fill="#ED0009" />
<rect x="34" y="28" width="1" height="1" fill="#ED0009" />
<rect x="35" y="28" width="1" height="1" fill="#ED0009" />
<rect x="36" y="28" width="1" height="1" fill="#ED0009" />
<rect x="37" y="28" width="1" height="1" fill="#ED0009" />
<rect x="38" y="28" width="1" height="1" fill="#D01219" />
<rect x="39" y="28" width="1" height="1" fill="#FF343B" />
<rect x="40" y="28" width="1" height="1" fill="#E4030B" />
<rect x="41" y="28" width="1" height="1" fill="#B0120A" />
<rect x="42" y="28" width="1" height="1" fill="#000000" />
<rect x="21" y="29" width="1" height="1" fill="#000000" />
<rect x="22" y="29" width="1" height="1" fill="#B0120A" />
<rect x="23" y="29" width="1" height="1" fill="#D00007" />
<rect x="24" y="29" width="1" height="1" fill="#D00007" />
<rect x="25" y="29" width="1" height="1" fill="#FF343B" />
<rect x="26" y="29" width="1" height="1" fill="#D01219" />
<rect x="27" y="29" width="1" height="1" fill="#D01219" />
<rect x="28" y="29" width="1" height="1" fill="#D01219" />
<rect x="29" y="29" width="1" height="1" fill="#D01219" />
<rect x="30" y="29" width="1" height="1" fill="#D01219" />
<rect x="31" y="29" width="1" height="1" fill="#D01219" />
<rect x="32" y="29" width="1" height="1" fill="#D01219" />
<rect x="33" y="29" width="1" height="1" fill="#D01219" />
<rect x="34" y="29" width="1" height="1" fill="#D01219" />
<rect x="35" y="29" width="1" height="1" fill="#D01219" />
<rect x="36" y="29" width="1" height="1" fill="#D01219" />
<rect x="37" y="29" width="1" height="1" fill="#D01219" />
<rect x="38" y="29" width="1" height="1" fill="#FF343B" />
<rect x="39" y="29" width="1" height="1" fill="#D00007" />
<rect x="40" y="29" width="1" height="1" fill="#D00007" />
<rect x="41" y="29" width="1" height="1" fill="#B0120A" />
<rect x="42" y="29" width="1" height="1" fill="#000000" />
<rect x="22" y="30" width="1" height="1" fill="#000000" />
<rect x="23" y="30" width="1" height="1" fill="#B0120A" />
<rect x="24" y="30" width="1" height="1" fill="#D00007" />
<rect x="25" y="30" width="1" height="1" fill="#E4030B" />
<rect x="26" y="30" width="1" height="1" fill="#FF343B" />
<rect x="27" y="30" width="1" height="1" fill="#FF343B" />
<rect x="28" y="30" width="1" height="1" fill="#FF343B" />
<rect x="29" y="30" width="1" height="1" fill="#FF343B" />
<rect x="30" y="30" width="1" height="1" fill="#FF343B" />
<rect x="31" y="30" width="1" height="1" fill="#FF343B" />
<rect x="32" y="30" width="1" height="1" fill="#FF343B" />
<rect x="33" y="30" width="1" height="1" fill="#FF343B" />
<rect x="34" y="30" width="1" height="1" fill="#FF343B" />
<rect x="35" y="30" width="1" height="1" fill="#FF343B" />
<rect x="36" y="30" width="1" height="1" fill="#FF343B" />
<rect x="37" y="30" width="1" height="1" fill="#FF343B" />
<rect x="38" y="30" width="1" height="1" fill="#E4030B" />
<rect x="39" y="30" width="1" height="1" fill="#D00007" />
<rect x="40" y="30" width="1" height="1" fill="#B0120A" />
<rect x="41" y="30" width="1" height="1" fill="#000000" />
<rect x="22" y="31" width="1" height="1" fill="#000000" />
<rect x="23" y="31" width="1" height="1" fill="#B0120A" />
<rect x="24" y="31" width="1" height="1" fill="#D00007" />
<rect x="25" y="31" width="1" height="1" fill="#D00007" />
<rect x="26" y="31" width="1" height="1" fill="#F32027" />
<rect x="27" y="31" width="1" height="1" fill="#F32027" />
<rect x="28" y="31" width="1" height="1" fill="#F32027" />
<rect x="29" y="31" width="1" height="1" fill="#F32027" />
<rect x="30" y="31" width="1" height="1" fill="#F32027" />
<rect x="31" y="31" width="1" height="1" fill="#F32027" />
<rect x="32" y="31" width="1" height="1" fill="#F32027" />
<rect x="33" y="31" width="1" height="1" fill="#F32027" />
<rect x="34" y="31" width="1" height="1" fill="#F32027" />
<rect x="35" y="31" width="1" height="1" fill="#F32027" />
<rect x="36" y="31" width="1" height="1" fill="#F32027" />
<rect x="37" y="31" width="1" height="1" fill="#F32027" />
<rect x="38" y="31" width="1" height="1" fill="#D00007" />
<rect x="39" y="31" width="1" height="1" fill="#D00007" />
<rect x="40" y="31" width="1" height="1" fill="#B0120A" />
<rect x="41" y="31" width="1" height="1" fill="#000000" />
<rect x="23" y="32" width="1" height="1" fill="#000000" />
<rect x="24" y="32" width="1" height="1" fill="#B0120A" />
<rect x="25" y="32" width="1" height="1" fill="#D00007" />
<rect x="26" y="32" width="1" height="1" fill="#C40007" />
<rect x="27" y="32" width="1" height="1" fill="#FF161E" />
<rect x="28" y="32" width="1" height="1" fill="#FF161E" />
<rect x="29" y="32" width="1" height="1" fill="#FF161E" />
<rect x="30" y="32" width="1" height="1" fill="#FF161E" />
<rect x="31" y="32" width="1" height="1" fill="#FF161E" />
<rect x="32" y="32" width="1" height="1" fill="#ED0009" />
<rect x="33" y="32" width="1" height="1" fill="#ED0009" />
<rect x="34" y="32" width="1" height="1" fill="#ED0009" />
<rect x="35" y="32" width="1" height="1" fill="#ED0009" />
<rect x="36" y="32" width="1" height="1" fill="#ED0009" />
<rect x="37" y="32" width="1" height="1" fill="#C40007" />
<rect x="38" y="32" width="1" height="1" fill="#D00007" />
<rect x="39" y="32" width="1" height="1" fill="#B0120A" />
<rect x="40" y="32" width="1" height="1" fill="#000000" />
<rect x="24" y="33" width="1" height="1" fill="#000000" />
<rect x="25" y="33" width="1" height="1" fill="#B0120A" />
<rect x="26" y="33" width="1" height="1" fill="#D00007" />
<rect x="27" y="33" width="1" height="1" fill="#C40007" />
<rect x="28" y="33" width="1" height="1" fill="#FF161E" />
<rect x="29" y="33" width="1" height="1" fill="#FF161E" />
<rect x="30" y="33" width="1" height="1" fill="#FF161E" />
<rect x="31" y="33" width="1" height="1" fill="#FF161E" />
<rect x="32" y="33" width="1" height="1" fill="#ED0009" />
<rect x="33" y="33" width="1" height="1" fill="#ED0009" />
<rect x="34" y="33" width="1" height="1" fill="#ED0009" />
<rect x="35" y="33" width="1" height="1" fill="#ED0009" />
<rect x="36" y="33" width="1" height="1" fill="#C40007" />
<rect x="37" y="33" width="1" height="1" fill="#D00007" />
<rect x="38" y="33" width="1" height="1" fill="#B0120A" />
<rect x="39" y="33" width="1" height="1" fill="#000000" />
<rect x="25" y="34" width="1" height="1" fill="#000000" />
<rect x="26" y="34" width="1" height="1" fill="#B0120A" />
<rect x="27" y="34" width="1" height="1" fill="#D00007" />
<rect x="28" y="34" width="1" height="1" fill="#C40007" />
<rect x="29" y="34" width="1" height="1" fill="#FF161E" />
<rect x="30" y="34" width="1" height="1" fill="#FF161E" />
<rect x="31" y="34" width="1" height="1" fill="#FF161E" />
<rect x="32" y="34" width="1" height="1" fill="#ED0009" />
<rect x="33" y="34" width="1" height="1" fill="#ED0009" />
<rect x="34" y="34" width="1" height="1" fill="#ED0009" />
<rect x="35" y="34" width="1" height="1" fill="#C40007" />
<rect x="36" y="34" width="1" height="1" fill="#D00007" />
<rect x="37" y="34" width="1" height="1" fill="#B0120A" />
<rect x="38" y="34" width="1" height="1" fill="#000000" />
<rect x="26" y="35" width="1" height="1" fill="#000000" />
<rect x="27" y="35" width="1" height="1" fill="#B0120A" />
<rect x="28" y="35" width="1" height="1" fill="#D00007" />
<rect x="29" y="35" width="1" height="1" fill="#A10F08" />
<rect x="30" y="35" width="1" height="1" fill="#FF161E" />
<rect x="31" y="35" width="1" height="1" fill="#FF161E" />
<rect x="32" y="35" width="1" height="1" fill="#ED0009" />
<rect x="33" y="35" width="1" height="1" fill="#ED0009" />
<rect x="34" y="35" width="1" height="1" fill="#A10F08" />
<rect x="35" y="35" width="1" height="1" fill="#D00007" />
<rect x="36" y="35" width="1" height="1" fill="#B0120A" />
<rect x="37" y="35" width="1" height="1" fill="#000000" />
<rect x="27" y="36" width="1" height="1" fill="#000000" />
<rect x="28" y="36" width="1" height="1" fill="#B0120A" />
<rect x="29" y="36" width="1" height="1" fill="#A10F08" />
<rect x="30" y="36" width="1" height="1" fill="#FF161E" />
<rect x="31" y="36" width="1" height="1" fill="#FF161E" />
<rect x="32" y="36" width="1" height="1" fill="#ED0009" />
<rect x="33" y="36" width="1" height="1" fill="#ED0009" />
<rect x="34" y="36" width="1" height="1" fill="#A10F08" />
<rect x="35" y="36" width="1" height="1" fill="#B0120A" />
<rect x="36" y="36" width="1" height="1" fill="#000000" />
<rect x="27" y="37" width="1" height="1" fill="#000000" />
<rect x="28" y="37" width="1" height="1" fill="#B0120A" />
<rect x="29" y="37" width="1" height="1" fill="#A10F08" />
<rect x="30" y="37" width="1" height="1" fill="#FF161E" />
<rect x="31" y="37" width="1" height="1" fill="#FF161E" />
<rect x="32" y="37" width="1" height="1" fill="#ED0009" />
<rect x="33" y="37" width="1" height="1" fill="#ED0009" />
<rect x="34" y="37" width="1" height="1" fill="#A10F08" />
<rect x="35" y="37" width="1" height="1" fill="#B0120A" />
<rect x="36" y="37" width="1" height="1" fill="#000000" />
<rect x="27" y="38" width="1" height="1" fill="#000000" />
<rect x="28" y="38" width="1" height="1" fill="#B0120A" />
<rect x="29" y="38" width="1" height="1" fill="#A10F08" />
<rect x="30" y="38" width="1" height="1" fill="#FF161E" />
<rect x="31" y="38" width="1" height="1" fill="#FF161E" />
<rect x="32" y="38" width="1" height="1" fill="#ED0009" />
<rect x="33" y="38" width="1" height="1" fill="#ED0009" />
<rect x="34" y="38" width="1" height="1" fill="#A10F08" />
<rect x="35" y="38" width="1" height="1" fill="#B0120A" />
<rect x="36" y="38" width="1" height="1" fill="#000000" />
<rect x="27" y="39" width="1" height="1" fill="#000000" />
<rect x="28" y="39" width="1" height="1" fill="#B0120A" />
<rect x="29" y="39" width="1" height="1" fill="#A10F08" />
<rect x="30" y="39" width="1" height="1" fill="#FF161E" />
<rect x="31" y="39" width="1" height="1" fill="#FF161E" />
<rect x="32" y="39" width="1" height="1" fill="#ED0009" />
<rect x="33" y="39" width="1" height="1" fill="#ED0009" />
<rect x="34" y="39" width="1" height="1" fill="#A10F08" />
<rect x="35" y="39" width="1" height="1" fill="#B0120A" />
<rect x="36" y="39" width="1" height="1" fill="#000000" />
<rect x="27" y="40" width="1" height="1" fill="#000000" />
<rect x="28" y="40" width="1" height="1" fill="#B0120A" />
<rect x="29" y="40" width="1" height="1" fill="#A10F08" />
<rect x="30" y="40" width="1" height="1" fill="#FF161E" />
<rect x="31" y="40" width="1" height="1" fill="#FF161E" />
<rect x="32" y="40" width="1" height="1" fill="#ED0009" />
<rect x="33" y="40" width="1" height="1" fill="#ED0009" />
<rect x="34" y="40" width="1" height="1" fill="#A10F08" />
<rect x="35" y="40" width="1" height="1" fill="#B0120A" />
<rect x="36" y="40" width="1" height="1" fill="#000000" />
<rect x="27" y="41" width="1" height="1" fill="#000000" />
<rect x="28" y="41" width="1" height="1" fill="#B0120A" />
<rect x="29" y="41" width="1" height="1" fill="#A10F08" />
<rect x="30" y="41" width="1" height="1" fill="#FF161E" />
<rect x="31" y="41" width="1" height="1" fill="#FF161E" />
<rect x="32" y="41" width="1" height="1" fill="#ED0009" />
<rect x="33" y="41" width="1" height="1" fill="#ED0009" />
<rect x="34" y="41" width="1" height="1" fill="#A10F08" />
<rect x="35" y="41" width="1" height="1" fill="#B0120A" />
<rect x="36" y="41" width="1" height="1" fill="#000000" />
<rect x="27" y="42" width="1" height="1" fill="#000000" />
<rect x="28" y="42" width="1" height="1" fill="#B0120A" />
<rect x="29" y="42" width="1" height="1" fill="#A10F08" />
<rect x="30" y="42" width="1" height="1" fill="#FF161E" />
<rect x="31" y="42" width="1" height="1" fill="#FF161E" />
<rect x="32" y="42" width="1" height="1" fill="#ED0009" />
<rect x="33" y="42" width="1" height="1" fill="#ED0009" />
<rect x="34" y="42" width="1" height="1" fill="#A10F08" />
<rect x="35" y="42" width="1" height="1" fill="#B0120A" />
<rect x="36" y="42" width="1" height="1" fill="#000000" />
<rect x="27" y="43" width="1" height="1" fill="#000000" />
<rect x="28" y="43" width="1" height="1" fill="#B0120A" />
<rect x="29" y="43" width="1" height="1" fill="#A10F08" />
<rect x="30" y="43" width="1" height="1" fill="#FF161E" />
<rect x="31" y="43" width="1" height="1" fill="#FF161E" />
<rect x="32" y="43" width="1" height="1" fill="#ED0009" />
<rect x="33" y="43" width="1" height="1" fill="#ED0009" />
<rect x="34" y="43" width="1" height="1" fill="#A10F08" />
<rect x="35" y="43" width="1" height="1" fill="#B0120A" />
<rect x="36" y="43" width="1" height="1" fill="#000000" />
<rect x="27" y="44" width="1" height="1" fill="#000000" />
<rect x="28" y="44" width="1" height="1" fill="#B0120A" />
<rect x="29" y="44" width="1" height="1" fill="#A10F08" />
<rect x="30" y="44" width="1" height="1" fill="#FF161E" />
<rect x="31" y="44" width="1" height="1" fill="#FF161E" />
<rect x="32" y="44" width="1" height="1" fill="#ED0009" />
<rect x="33" y="44" width="1" height="1" fill="#ED0009" />
<rect x="34" y="44" width="1" height="1" fill="#A10F08" />
<rect x="35" y="44" width="1" height="1" fill="#B0120A" />
<rect x="36" y="44" width="1" height="1" fill="#000000" />
<rect x="27" y="45" width="1" height="1" fill="#000000" />
<rect x="28" y="45" width="1" height="1" fill="#B0120A" />
<rect x="29" y="45" width="1" height="1" fill="#A10F08" />
<rect x="30" y="45" width="1" height="1" fill="#FF161E" />
<rect x="31" y="45" width="1" height="1" fill="#FF161E" />
<rect x="32" y="45" width="1" height="1" fill="#ED0009" />
<rect x="33" y="45" width="1" height="1" fill="#ED0009" />
<rect x="34" y="45" width="1" height="1" fill="#A10F08" />
<rect x="35" y="45" width="1" height="1" fill="#B0120A" />
<rect x="36" y="45" width="1" height="1" fill="#000000" />
<rect x="27" y="46" width="1" height="1" fill="#000000" />
<rect x="28" y="46" width="1" height="1" fill="#B0120A" />
<rect x="29" y="46" width="1" height="1" fill="#A10F08" />
<rect x="30" y="46" width="1" height="1" fill="#FF161E" />
<rect x="31" y="46" width="1" height="1" fill="#FF161E" />
<rect x="32" y="46" width="1" height="1" fill="#ED0009" />
<rect x="33" y="46" width="1" height="1" fill="#ED0009" />
<rect x="34" y="46" width="1" height="1" fill="#A10F08" />
<rect x="35" y="46" width="1" height="1" fill="#B0120A" />
<rect x="36" y="46" width="1" height="1" fill="#000000" />
<rect x="27" y="47" width="1" height="1" fill="#000000" />
<rect x="28" y="47" width="1" height="1" fill="#B0120A" />
<rect x="29" y="47" width="1" height="1" fill="#A10F08" />
<rect x="30" y="47" width="1" height="1" fill="#FF161E" />
<rect x="31" y="47" width="1" height="1" fill="#FF161E" />
<rect x="32" y="47" width="1" height="1" fill="#ED0009" />
<rect x="33" y="47" width="1" height="1" fill="#ED0009" />
<rect x="34" y="47" width="1" height="1" fill="#A10F08" />
<rect x="35" y="47" width="1" height="1" fill="#B0120A" />
<rect x="36" y="47" width="1" height="1" fill="#000000" />
<rect x="27" y="48" width="1" height="1" fill="#000000" />
<rect x="28" y="48" width="1" height="1" fill="#B0120A" />
<rect x="29" y="48" width="1" height="1" fill="#A10F08" />
<rect x="30" y="48" width="1" height="1" fill="#FF161E" />
<rect x="31" y="48" width="1" height="1" fill="#FF161E" />
<rect x="32" y="48" width="1" height="1" fill="#ED0009" />
<rect x="33" y="48" width="1" height="1" fill="#ED0009" />
<rect x="34" y="48" width="1" height="1" fill="#A10F08" />
<rect x="35" y="48" width="1" height="1" fill="#B0120A" />
<rect x="36" y="48" width="1" height="1" fill="#000000" />
<rect x="27" y="49" width="1" height="1" fill="#000000" />
<rect x="28" y="49" width="1" height="1" fill="#B0120A" />
<rect x="29" y="49" width="1" height="1" fill="#A10F08" />
<rect x="30" y="49" width="1" height="1" fill="#FF161E" />
<rect x="31" y="49" width="1" height="1" fill="#FF161E" />
<rect x="32" y="49" width="1" height="1" fill="#ED0009" />
<rect x="33" y="49" width="1" height="1" fill="#ED0009" />
<rect x="34" y="49" width="1" height="1" fill="#A10F08" />
<rect x="35" y="49" width="1" height="1" fill="#B0120A" />
<rect x="36" y="49" width="1" height="1" fill="#000000" />
<rect x="27" y="50" width="1" height="1" fill="#000000" />
<rect x="28" y="50" width="1" height="1" fill="#B0120A" />
<rect x="29" y="50" width="1" height="1" fill="#A10F08" />
<rect x="30" y="50" width="1" height="1" fill="#FF161E" />
<rect x="31" y="50" width="1" height="1" fill="#FF161E" />
<rect x="32" y="50" width="1" height="1" fill="#ED0009" />
<rect x="33" y="50" width="1" height="1" fill="#ED0009" />
<rect x="34" y="50" width="1" height="1" fill="#A10F08" />
<rect x="35" y="50" width="1" height="1" fill="#B0120A" />
<rect x="36" y="50" width="1" height="1" fill="#000000" />
<rect x="27" y="51" width="1" height="1" fill="#000000" />
<rect x="28" y="51" width="1" height="1" fill="#B0120A" />
<rect x="29" y="51" width="1" height="1" fill="#A10F08" />
<rect x="30" y="51" width="1" height="1" fill="#FF161E" />
<rect x="31" y="51" width="1" height="1" fill="#FF161E" />
<rect x="32" y="51" width="1" height="1" fill="#ED0009" />
<rect x="33" y="51" width="1" height="1" fill="#ED0009" />
<rect x="34" y="51" width="1" height="1" fill="#A10F08" />
<rect x="35" y="51" width="1" height="1" fill="#B0120A" />
<rect x="36" y="51" width="1" height="1" fill="#000000" />
<rect x="27" y="52" width="1" height="1" fill="#000000" />
<rect x="28" y="52" width="1" height="1" fill="#B0120A" />
<rect x="29" y="52" width="1" height="1" fill="#A10F08" />
<rect x="30" y="52" width="1" height="1" fill="#FF161E" />
<rect x="31" y="52" width="1" height="1" fill="#FF161E" />
<rect x="32" y="52" width="1" height="1" fill="#ED0009" />
<rect x="33" y="52" width="1" height="1" fill="#ED0009" />
<rect x="34" y="52" width="1" height="1" fill="#A10F08" />
<rect x="35" y="52" width="1" height="1" fill="#B0120A" />
<rect x="36" y="52" width="1" height="1" fill="#000000" />
<rect x="27" y="53" width="1" height="1" fill="#000000" />
<rect x="28" y="53" width="1" height="1" fill="#B0120A" />
<rect x="29" y="53" width="1" height="1" fill="#A10F08" />
<rect x="30" y="53" width="1" height="1" fill="#FF161E" />
<rect x="31" y="53" width="1" height="1" fill="#FF161E" />
<rect x="32" y="53" width="1" height="1" fill="#ED0009" />
<rect x="33" y="53" width="1" height="1" fill="#ED0009" />
<rect x="34" y="53" width="1" height="1" fill="#A10F08" />
<rect x="35" y="53" width="1" height="1" fill="#B0120A" />
<rect x="36" y="53" width="1" height="1" fill="#000000" />
<rect x="27" y="54" width="1" height="1" fill="#000000" />
<rect x="28" y="54" width="1" height="1" fill="#B0120A" />
<rect x="29" y="54" width="1" height="1" fill="#A10F08" />
<rect x="30" y="54" width="1" height="1" fill="#FF161E" />
<rect x="31" y="54" width="1" height="1" fill="#FF161E" />
<rect x="32" y="54" width="1" height="1" fill="#ED0009" />
<rect x="33" y="54" width="1" height="1" fill="#ED0009" />
<rect x="34" y="54" width="1" height="1" fill="#A10F08" />
<rect x="35" y="54" width="1" height="1" fill="#B0120A" />
<rect x="36" y="54" width="1" height="1" fill="#000000" />
<rect x="27" y="55" width="1" height="1" fill="#000000" />
<rect x="28" y="55" width="1" height="1" fill="#B0120A" />
<rect x="29" y="55" width="1" height="1" fill="#A10F08" />
<rect x="30" y="55" width="1" height="1" fill="#FF161E" />
<rect x="31" y="55" width="1" height="1" fill="#FF161E" />
<rect x="32" y="55" width="1" height="1" fill="#ED0009" />
<rect x="33" y="55" width="1" height="1" fill="#ED0009" />
<rect x="34" y="55" width="1" height="1" fill="#A10F08" />
<rect x="35" y="55" width="1" height="1" fill="#B0120A" />
<rect x="36" y="55" width="1" height="1" fill="#000000" />
<rect x="27" y="56" width="1" height="1" fill="#000000" />
<rect x="28" y="56" width="1" height="1" fill="#B0120A" />
<rect x="29" y="56" width="1" height="1" fill="#A10F08" />
<rect x="30" y="56" width="1" height="1" fill="#FF161E" />
<rect x="31" y="56" width="1" height="1" fill="#FF161E" />
<rect x="32" y="56" width="1" height="1" fill="#ED0009" />
<rect x="33" y="56" width="1" height="1" fill="#ED0009" />
<rect x="34" y="56" width="1" height="1" fill="#A10F08" />
<rect x="35" y="56" width="1" height="1" fill="#B0120A" />
<rect x="36" y="56" width="1" height="1" fill="#000000" />
<rect x="27" y="57" width="1" height="1" fill="#000000" />
<rect x="28" y="57" width="1" height="1" fill="#B0120A" />
<rect x="29" y="57" width="1" height="1" fill="#A10F08" />
<rect x="30" y="57" width="1" height="1" fill="#FF161E" />
<rect x="31" y="57" width="1" height="1" fill="#FF161E" />
<rect x="32" y="57" width="1" height="1" fill="#ED0009" />
<rect x="33" y="57" width="1" height="1" fill="#ED0009" />
<rect x="34" y="57" width="1" height="1" fill="#A10F08" />
<rect x="35" y="57" width="1" height="1" fill="#B0120A" />
<rect x="36" y="57" width="1" height="1" fill="#000000" />
<rect x="27" y="58" width="1" height="1" fill="#000000" />
<rect x="28" y="58" width="1" height="1" fill="#B0120A" />
<rect x="29" y="58" width="1" height="1" fill="#A10F08" />
<rect x="30" y="58" width="1" height="1" fill="#FF161E" />
<rect x="31" y="58" width="1" height="1" fill="#FF161E" />
<rect x="32" y="58" width="1" height="1" fill="#ED0009" />
<rect x="33" y="58" width="1" height="1" fill="#ED0009" />
<rect x="34" y="58" width="1" height="1" fill="#A10F08" />
<rect x="35" y="58" width="1" height="1" fill="#B0120A" />
<rect x="36" y="58" width="1" height="1" fill="#000000" />
<rect x="27" y="59" width="1" height="1" fill="#000000" />
<rect x="28" y="59" width="1" height="1" fill="#B0120A" />
<rect x="29" y="59" width="1" height="1" fill="#A10F08" />
<rect x="30" y="59" width="1" height="1" fill="#FF161E" />
<rect x="31" y="59" width="1" height="1" fill="#FF161E" />
<rect x="32" y="59" width="1" height="1" fill="#ED0009" />
<rect x="33" y="59" width="1" height="1" fill="#ED0009" />
<rect x="34" y="59" width="1" height="1" fill="#A10F08" />
<rect x="35" y="59" width="1" height="1" fill="#B0120A" />
<rect x="36" y="59" width="1" height="1" fill="#000000" />
<rect x="28" y="60" width="1" height="1" fill="#000000" />
<rect x="29" y="60" width="1" height="1" fill="#B0120A" />
<rect x="30" y="60" width="1" height="1" fill="#A10F08" />
<rect x="31" y="60" width="1" height="1" fill="#FF161E" />
<rect x="32" y="60" width="1" height="1" fill="#ED0009" />
<rect x="33" y="60" width="1" height="1" fill="#A10F08" />
<rect x="34" y="60" width="1" height="1" fill="#B0120A" />
<rect x="35" y="60" width="1" height="1" fill="#000000" />
<rect x="28" y="61" width="1" height="1" fill="#000000" />
<rect x="29" y="61" width="1" height="1" fill="#B0120A" />
<rect x="30" y="61" width="1" height="1" fill="#A10F08" />
<rect x="31" y="61" width="1" height="1" fill="#A10F08" />
<rect x="32" y="61" width="1" height="1" fill="#A10F08" />
<rect x="33" y="61" width="1" height="1" fill="#A10F08" />
<rect x="34" y="61" width="1" height="1" fill="#B0120A" />
<rect x="35" y="61" width="1" height="1" fill="#000000" />
<rect x="29" y="62" width="1" height="1" fill="#000000" />
<rect x="30" y="62" width="1" height="1" fill="#B0120A" />
<rect x="31" y="62" width="1" height="1" fill="#B0120A" />
<rect x="32" y="62" width="1" height="1" fill="#B0120A" />
<rect x="33" y="62" width="1" height="1" fill="#B0120A" />
<rect x="34" y="62" width="1" height="1" fill="#000000" />
<rect x="30" y="63" width="1" height="1" fill="#000000" />
<rect x="31" y="63" width="1" height="1" fill="#000000" />
<rect x="32" y="63" width="1" height="1" fill="#000000" />
<rect x="33" y="63" width="1" height="1" fill="#000000" />
</svg>