<?xml version="1.0" encoding="UTF-8" ?>
<svg version="1.1" width="64" height="64" xmlns="http://www.w3.org/2000/svg" shape-rendering="crispEdges">
<rect x="30" y="3" width="1" height="1" fill="#17111A" />
<rect x="31" y="3" width="1" height="1" fill="#17111A" />
<rect x="32" y="3" width="1" height="1" fill="#17111A" />
<rect x="33" y="3" width="1" height="1" fill="#17111A" />
<rect x="29" y="4" width="1" height="1" fill="#17111A" />
<rect x="30" y="4" width="1" height="1" fill="#989FA4" />
<rect x="31" y="4" width="1" height="1" fill="#C5CACD" />
<rect x="32" y="4" width="1" height="1" fill="#989FA4" />
<rect x="33" y="4" width="1" height="1" fill="#989FA4" />
<rect x="34" y="4" width="1" height="1" fill="#17111A" />
<rect x="29" y="5" width="1" height="1" fill="#17111A" />
<rect x="30" y="5" width="1" height="1" fill="#17111A" />
<rect x="31" y="5" width="1" height="1" fill="#989FA4" />
<rect x="32" y="5" width="1" height="1" fill="#989FA4" />
<rect x="33" y="5" width="1" height="1" fill="#17111A" />
<rect x="34" y="5" width="1" height="1" fill="#17111A" />
<rect x="30" y="6" width="1" height="1" fill="#1F1B1B" />
<rect x="31" y="6" width="1" height="1" fill="#6E3E19" />
<rect x="32" y="6" width="1" height="1" fill="#6E3E19" />
<rect x="33" y="6" width="1" height="1" fill="#1F1B1B" />
<rect x="30" y="7" width="1" height="1" fill="#1F1B1B" />
<rect x="31" y="7" width="1" height="1" fill="#6E3E19" />
<rect x="32" y="7" width="1" height="1" fill="#5A3416" />
<rect x="33" y="7" width="1" height="1" fill="#1F1B1B" />
<rect x="30" y="8" width="1" height="1" fill="#1F1B1B" />
<rect x="31" y="8" width="1" height="1" fill="#5A3416" />
<rect x="32" y="8" width="1" height="1" fill="#6E3E19" />
<rect x="33" y="8" width="1" height="1" fill="#1F1B1B" />
<rect x="30" y="9" width="1" height="1" fill="#1F1B1B" />
<rect x="31" y="9" width="1" height="1" fill="#6E3E19" />
<rect x="32" y="9" width="1" height="1" fill="#6E3E19" />
<rect x="33" y="9" width="1" height="1" fill="#1F1B1B" />
<rect x="30" y="10" width="1" height="1" fill="#1F1B1B" />
<rect x="31" y="10" width="1" height="1" fill="#000000" />
<rect x="32" y="10" width="1" height="1" fill="#000000" />
<rect x="33" y="10" width="1" height="1" fill="#1F1B1B" />
<rect x="30" y="11" width="1" height="1" fill="#1F1B1B" />
<rect x="31" y="11" width="1" height="1" fill="#000000" />
<rect x="32" y="11" width="1" height="1" fill="#000000" />
<rect x="33" y="11" width="1" height="1" fill="#1F1B1B" />
<rect x="30" y="12" width="1" height="1" fill="#1F1B1B" />
<rect x="31" y="12" width="1" height="1" fill="#000000" />
<rect x="32" y="12" width="1" height="1" fill="#000000" />
<rect x="33" y="12" width="1" height="1" fill="#1F1B1B" />
<rect x="30" y="13" width="1" height="1" fill="#1F1B1B" />
<rect x="31" y="13" width="1" height="1" fill="#6E3E19" />
<rect x="32" y="13" width="1" height="1" fill="#6E3E19" />
<rect x="33" y="13" width="1" height="1" fill="#1F1B1B" />
<rect x="30" y="14" width="1" height="1" fill="#1F1B1B" />
<rect x="31" y="14" width="1" height="1" fill="#5A3416" />
<rect x="32" y="14" width="1" height="1" fill="#6E3E19" />
<rect x="33" y="14" width="1" height="1" fill="#1F1B1B" />
<rect x="30" y="15" width="1" height="1" fill="#1F1B1B" />
<rect x="31" y="15" width="1" height="1" fill="#6E3E19" />
<rect x="32" y="15" width="1" height="1" fill="#5A3416" />
<rect x="33" y="15" width="1" height="1" fill="#1F1B1B" />
<rect x="30" y="16" width="1" height="1" fill="#000000" />
<rect x="31" y="16" width="1" height="1" fill="#000000" />
<rect x="32" y="16" width="1" height="1" fill="#000000" />
<rect x="33" y="16" width="1" height="1" fill="#000000" />
<rect x="29" y="17" width="1" height="1" fill="#000000" />
<rect x="30" y="17" width="1" height="1" fill="#9CA1A4" />
<rect x="31" y="17" width="1" height="1" fill="#72777B" />
<rect x="32" y="17" width="1" height="1" fill="#72777B" />
<rect x="33" y="17" width="1" height="1" fill="#9CA1A4" />
<rect x="34" y="17" width="1" height="1" fill="#000000" />
<rect x="27" y="18" width="1" height="1" fill="#000000" />
<rect x="28" y="18" width="1" height="1" fill="#000000" />
<rect x="29" y="18" width="1" height="1" fill="#9CA1A4" />
<rect x="30" y="18" width="1" height="1" fill="#83898D" />
<rect x="31" y="18" width="1" height="1" fill="#83898D" />
<rect x="32" y="18" width="1" height="1" fill="#83898D" />
<rect x="33" y="18" width="1" height="1" fill="#83898D" />
<rect x="34" y="18" width="1" height="1" fill="#9CA1A4" />
<rect x="35" y="18" width="1" height="1" fill="#000000" />
<rect x="36" y="18" width="1" height="1" fill="#000000" />
<rect x="26" y="19" width="1" height="1" fill="#000000" />
<rect x="27" y="19" width="1" height="1" fill="#9CA1A4" />
<rect x="28" y="19" width="1" height="1" fill="#72777B" />
<rect x="29" y="19" width="1" height="1" fill="#83898D" />
<rect x="30" y="19" width="1" height="1" fill="#72777B" />
<rect x="31" y="19" width="1" height="1" fill="#72777B" />
<rect x="32" y="19" width="1" height="1" fill="#72777B" />
<rect x="33" y="19" width="1" height="1" fill="#72777B" />
<rect x="34" y="19" width="1" height="1" fill="#83898D" />
<rect x="35" y="19" width="1" height="1" fill="#72777B" />
<rect x="36" y="19" width="1" height="1" fill="#9CA1A4" />
<rect x="37" y="19" width="1" height="1" fill="#000000" />
<rect x="25" y="20" width="1" height="1" fill="#000000" />
<rect x="26" y="20" width="1" height="1" fill="#72777B" />
<rect x="27" y="20" width="1" height="1" fill="#91979B" />
<rect x="28" y="20" width="1" height="1" fill="#91979B" />
<rect x="29" y="20" width="1" height="1" fill="#72777B" />
<rect x="30" y="20" width="1" height="1" fill="#83898D" />
<rect x="31" y="20" width="1" height="1" fill="#83898D" />
<rect x="32" y="20" width="1" height="1" fill="#83898D" />
<rect x="33" y="20" width="1" height="1" fill="#83898D" />
<rect x="34" y="20" width="1" height="1" fill="#72777B" />
<rect x="35" y="20" width="1" height="1" fill="#91979B" />
<rect x="36" y="20" width="1" height="1" fill="#91979B" />
<rect x="37" y="20" width="1" height="1" fill="#72777B" />
<rect x="38" y="20" width="1" height="1" fill="#000000" />
<rect x="25" y="21" width="1" height="1" fill="#000000" />
<rect x="26" y="21" width="1" height="1" fill="#7D8489" />
<rect x="27" y="21" width="1" height="1" fill="#72777B" />
<rect x="28" y="21" width="1" height="1" fill="#72777B" />
<rect x="29" y="21" width="1" height="1" fill="#83898D" />
<rect x="30" y="21" width="1" height="1" fill="#72777B" />
<rect x="31" y="21" width="1" height="1" fill="#72777B" />
<rect x="32" y="21" width="1" height="1" fill="#72777B" />
<rect x="33" y="21" width="1" height="1" fill="#72777B" />
<rect x="34" y="21" width="1" height="1" fill="#83898D" />
<rect x="35" y="21" width="1" height="1" fill="#72777B" />
<rect x="36" y="21" width="1" height="1" fill="#72777B" />
<rect x="37" y="21" width="1" height="1" fill="#7D8489" />
<rect x="38" y="21" width="1" height="1" fill="#000000" />
<rect x="26" y="22" width="1" height="1" fill="#000000" />
<rect x="27" y="22" width="1" height="1" fill="#000000" />
<rect x="28" y="22" width="1" height="1" fill="#7D8489" />
<rect x="29" y="22" width="1" height="1" fill="#72777B" />
<rect x="30" y="22" width="1" height="1" fill="#83898D" />
<rect x="31" y="22" width="1" height="1" fill="#83898D" />
<rect x="32" y="22" width="1" height="1" fill="#83898D" />
<rect x="33" y="22" width="1" height="1" fill="#83898D" />
<rect x="34" y="22" width="1" height="1" fill="#72777B" />
<rect x="35" y="22" width="1" height="1" fill="#7D8489" />
<rect x="36" y="22" width="1" height="1" fill="#000000" />
<rect x="37" y="22" width="1" height="1" fill="#000000" />
<rect x="27" y="23" width="1" height="1" fill="#000000" />
<rect x="28" y="23" width="1" height="1" fill="#000000" />
<rect x="29" y="23" width="1" height="1" fill="#72777B" />
<rect x="30" y="23" width="1" height="1" fill="#9CA1A4" />
<rect x="31" y="23" width="1" height="1" fill="#9CA1A4" />
<rect x="32" y="23" width="1" height="1" fill="#9CA1A4" />
<rect x="33" y="23" width="1" height="1" fill="#9CA1A4" />
<rect x="34" y="23" width="1" height="1" fill="#72777B" />
<rect x="35" y="23" width="1" height="1" fill="#000000" />
<rect x="36" y="23" width="1" height="1" fill="#000000" />
<rect x="28" y="24" width="1" height="1" fill="#000000" />
<rect x="29" y="24" width="1" height="1" fill="#000000" />
<rect x="30" y="24" width="1" height="1" fill="#949EA4" />
<rect x="31" y="24" width="1" height="1" fill="#DFD4D4" />
<rect x="32" y="24" width="1" height="1" fill="#DFD4D4" />
<rect x="33" y="24" width="1" height="1" fill="#949EA4" />
<rect x="34" y="24" width="1" height="1" fill="#000000" />
<rect x="35" y="24" width="1" height="1" fill="#000000" />
<rect x="29" y="25" width="1" height="1" fill="#000000" />
<rect x="30" y="25" width="1" height="1" fill="#949EA4" />
<rect x="31" y="25" width="1" height="1" fill="#DFD4D4" />
<rect x="32" y="25" width="1" height="1" fill="#DFD4D4" />
<rect x="33" y="25" width="1" height="1" fill="#949EA4" />
<rect x="34" y="25" width="1" height="1" fill="#000000" />
<rect x="29" y="26" width="1" height="1" fill="#000000" />
<rect x="30" y="26" width="1" height="1" fill="#949EA4" />
<rect x="31" y="26" width="1" height="1" fill="#DFD4D4" />
<rect x="32" y="26" width="1" height="1" fill="#DFD4D4" />
<rect x="33" y="26" width="1" height="1" fill="#949EA4" />
<rect x="34" y="26" width="1" height="1" fill="#000000" />
<rect x="29" y="27" width="1" height="1" fill="#000000" />
<rect x="30" y="27" width="1" height="1" fill="#949EA4" />
<rect x="31" y="27" width="1" height="1" fill="#DFD4D4" />
<rect x="32" y="27" width="1" height="1" fill="#DFD4D4" />
<rect x="33" y="27" width="1" height="1" fill="#949EA4" />
<rect x="34" y="27" width="1" height="1" fill="#000000" />
<rect x="29" y="28" width="1" height="1" fill="#000000" />
<rect x="30" y="28" width="1" height="1" fill="#949EA4" />
<rect x="31" y="28" width="1" height="1" fill="#DFD4D4" />
<rect x="32" y="28" width="1" height="1" fill="#DFD4D4" />
<rect x="33" y="28" width="1" height="1" fill="#949EA4" />
<rect x="34" y="28" width="1" height="1" fill="#000000" />
<rect x="29" y="29" width="1" height="1" fill="#000000" />
<rect x="30" y="29" width="1" height="1" fill="#949EA4" />
<rect x="31" y="29" width="1" height="1" fill="#DFD4D4" />
<rect x="32" y="29" width="1" height="1" fill="#DFD4D4" />
<rect x="33" y="29" width="1" height="1" fill="#949EA4" />
<rect x="34" y="29" width="1" height="1" fill="#000000" />
<rect x="29" y="30" width="1" height="1" fill="#000000" />
<rect x="30" y="30" width="1" height="1" fill="#949EA4" />
<rect x="31" y="30" width="1" height="1" fill="#DFD4D4" />
<rect x="32" y="30" width="1" height="1" fill="#DFD4D4" />
<rect x="33" y="30" width="1" height="1" fill="#949EA4" />
<rect x="34" y="30" width="1" height="1" fill="#000000" />
<rect x="29" y="31" width="1" height="1" fill="#000000" />
<rect x="30" y="31" width="1" height="1" fill="#949EA4" />
<rect x="31" y="31" width="1" height="1" fill="#DFD4D4" />
<rect x="32" y="31" width="1" height="1" fill="#DFD4D4" />
<rect x="33" y="31" width="1" height="1" fill="#949EA4" />
<rect x="34" y="31" width="1" height="1" fill="#000000" />
<rect x="29" y="32" width="1" height="1" fill="#000000" />
<rect x="30" y="32" width="1" height="1" fill="#949EA4" />
<rect x="31" y="32" width="1" height="1" fill="#DFD4D4" />
<rect x="32" y="32" width="1" height="1" fill="#DFD4D4" />
<rect x="33" y="32" width="1" height="1" fill="#949EA4" />
<rect x="34" y="32" width="1" height="1" fill="#000000" />
<rect x="29" y="33" width="1" height="1" fill="#000000" />
<rect x="30" y="33" width="1" height="1" fill="#949EA4" />
<rect x="31" y="33" width="1" height="1" fill="#DFD4D4" />
<rect x="32" y="33" width="1" height="1" fill="#DFD4D4" />
<rect x="33" y="33" width="1" height="1" fill="#949EA4" />
<rect x="34" y="33" width="1" height="1" fill="#000000" />
<rect x="29" y="34" width="1" height="1" fill="#000000" />
<rect x="30" y="34" width="1" height="1" fill="#949EA4" />
<rect x="31" y="34" width="1" height="1" fill="#DFD4D4" />
<rect x="32" y="34" width="1" height="1" fill="#DFD4D4" />
<rect x="33" y="34" width="1" height="1" fill="#949EA4" />
<rect x="34" y="34" width="1" height="1" fill="#000000" />
<rect x="29" y="35" width="1" height="1" fill="#000000" />
<rect x="30" y="35" width="1" height="1" fill="#949EA4" />
<rect x="31" y="35" width="1" height="1" fill="#DFD4D4" />
<rect x="32" y="35" width="1" height="1" fill="#DFD4D4" />
<rect x="33" y="35" width="1" height="1" fill="#949EA4" />
<rect x="34" y="35" width="1" height="1" fill="#000000" />
<rect x="29" y="36" width="1" height="1" fill="#000000" />
<rect x="30" y="36" width="1" height="1" fill="#949EA4" />
<rect x="31" y="36" width="1" height="1" fill="#DFD4D4" />
<rect x="32" y="36" width="1" height="1" fill="#DFD4D4" />
<rect x="33" y="36" width="1" height="1" fill="#949EA4" />
<rect x="34" y="36" width="1" height="1" fill="#000000" />
<rect x="29" y="37" width="1" height="1" fill="#000000" />
<rect x="30" y="37" width="1" height="1" fill="#949EA4" />
<rect x="31" y="37" width="1" height="1" fill="#DFD4D4" />
<rect x="32" y="37" width="1" height="1" fill="#DFD4D4" />
<rect x="33" y="37" width="1" height="1" fill="#949EA4" />
<rect x="34" y="37" width="1" height="1" fill="#000000" />
<rect x="29" y="38" width="1" height="1" fill="#000000" />
<rect x="30" y="38" width="1" height="1" fill="#949EA4" />
<rect x="31" y="38" width="1" height="1" fill="#DFD4D4" />
<rect x="32" y="38" width="1" height="1" fill="#DFD4D4" />
<rect x="33" y="38" width="1" height="1" fill="#949EA4" />
<rect x="34" y="38" width="1" height="1" fill="#000000" />
<rect x="29" y="39" width="1" height="1" fill="#000000" />
<rect x="30" y="39" width="1" height="1" fill="#949EA4" />
<rect x="31" y="39" width="1" height="1" fill="#DFD4D4" />
<rect x="32" y="39" width="1" height="1" fill="#DFD4D4" />
<rect x="33" y="39" width="1" height="1" fill="#949EA4" />
<rect x="34" y="39" width="1" height="1" fill="#000000" />
<rect x="29" y="40" width="1" height="1" fill="#000000" />
<rect x="30" y="40" width="1" height="1" fill="#949EA4" />
<rect x="31" y="40" width="1" height="1" fill="#DFD4D4" />
<rect x="32" y="40" width="1" height="1" fill="#DFD4D4" />
<rect x="33" y="40" width="1" height="1" fill="#949EA4" />
<rect x="34" y="40" width="1" height="1" fill="#000000" />
<rect x="29" y="41" width="1" height="1" fill="#000000" />
<rect x="30" y="41" width="1" height="1" fill="#949EA4" />
<rect x="31" y="41" width="1" height="1" fill="#DFD4D4" />
<rect x="32" y="41" width="1" height="1" fill="#DFD4D4" />
<rect x="33" y="41" width="1" height="1" fill="#949EA4" />
<rect x="34" y="41" width="1" height="1" fill="#000000" />
<rect x="29" y="42" width="1" height="1" fill="#000000" />
<rect x="30" y="42" width="1" height="1" fill="#949EA4" />
<rect x="31" y="42" width="1" height="1" fill="#DFD4D4" />
<rect x="32" y="42" width="1" height="1" fill="#DFD4D4" />
<rect x="33" y="42" width="1" height="1" fill="#949EA4" />
<rect x="34" y="42" width="1" height="1" fill="#000000" />
<rect x="29" y="43" width="1" height="1" fill="#000000" />
<rect x="30" y="43" width="1" height="1" fill="#949EA4" />
<rect x="31" y="43" width="1" height="1" fill="#DFD4D4" />
<rect x="32" y="43" width="1" height="1" fill="#DFD4D4" />
<rect x="33" y="43" width="1" height="1" fill="#949EA4" />
<rect x="34" y="43" width="1" height="1" fill="#000000" />
<rect x="29" y="44" width="1" height="1" fill="#000000" />
<rect x="30" y="44" width="1" height="1" fill="#949EA4" />
<rect x="31" y="44" width="1" height="1" fill="#DFD4D4" />
<rect x="32" y="44" width="1" height="1" fill="#DFD4D4" />
<rect x="33" y="44" width="1" height="1" fill="#949EA4" />
<rect x="34" y="44" width="1" height="1" fill="#000000" />
<rect x="29" y="45" width="1" height="1" fill="#000000" />
<rect x="30" y="45" width="1" height="1" fill="#949EA4" />
<rect x="31" y="45" width="1" height="1" fill="#DFD4D4" />
<rect x="32" y="45" width="1" height="1" fill="#DFD4D4" />
<rect x="33" y="45" width="1" height="1" fill="#949EA4" />
<rect x="34" y="45" width="1" height="1" fill="#000000" />
<rect x="29" y="46" width="1" height="1" fill="#000000" />
<rect x="30" y="46" width="1" height="1" fill="#949EA4" />
<rect x="31" y="46" width="1" height="1" fill="#DFD4D4" />
<rect x="32" y="46" width="1" height="1" fill="#DFD4D4" />
<rect x="33" y="46" width="1" height="1" fill="#949EA4" />
<rect x="34" y="46" width="1" height="1" fill="#000000" />
<rect x="29" y="47" width="1" height="1" fill="#000000" />
<rect x="30" y="47" width="1" height="1" fill="#949EA4" />
<rect x="31" y="47" width="1" height="1" fill="#DFD4D4" />
<rect x="32" y="47" width="1" height="1" fill="#DFD4D4" />
<rect x="33" y="47" width="1" height="1" fill="#949EA4" />
<rect x="34" y="47" width="1" height="1" fill="#000000" />
<rect x="29" y="48" width="1" height="1" fill="#000000" />
<rect x="30" y="48" width="1" height="1" fill="#949EA4" />
<rect x="31" y="48" width="1" height="1" fill="#DFD4D4" />
<rect x="32" y="48" width="1" height="1" fill="#DFD4D4" />
<rect x="33" y="48" width="1" height="1" fill="#949EA4" />
<rect x="34" y="48" width="1" height="1" fill="#000000" />
<rect x="29" y="49" width="1" height="1" fill="#000000" />
<rect x="30" y="49" width="1" height="1" fill="#949EA4" />
<rect x="31" y="49" width="1" height="1" fill="#DFD4D4" />
<rect x="32" y="49" width="1" height="1" fill="#DFD4D4" />
<rect x="33" y="49" width="1" height="1" fill="#949EA4" />
<rect x="34" y="49" width="1" height="1" fill="#000000" />
<rect x="29" y="50" width="1" height="1" fill="#000000" />
<rect x="30" y="50" width="1" height="1" fill="#949EA4" />
<rect x="31" y="50" width="1" height="1" fill="#DFD4D4" />
<rect x="32" y="50" width="1" height="1" fill="#DFD4D4" />
<rect x="33" y="50" width="1" height="1" fill="#949EA4" />
<rect x="34" y="50" width="1" height="1" fill="#000000" />
<rect x="30" y="51" width="1" height="1" fill="#000000" />
<rect x="31" y="51" width="1" height="1" fill="#6B7276" />
<rect x="32" y="51" width="1" height="1" fill="#6B7276" />
<rect x="33" y="51" width="1" height="1" fill="#000000" />
<rect x="31" y="52" width="1" height="1" fill="#000000" />
<rect x="32" y="52" width="1" height="1" fill="#000000" />
</svg>